<?xml version="1.0" standalone="no"?>
<!DOCTYPE svg PUBLIC "-//W3C//DTD SVG 20010904//EN"
 "http://www.w3.org/TR/2001/REC-SVG-20010904/DTD/svg10.dtd">
<svg version="1.0" xmlns="http://www.w3.org/2000/svg"
 width="1592.000000pt" height="1592.000000pt" viewBox="0 0 1592.000000 1592.000000"
 preserveAspectRatio="xMidYMid meet">
<metadata>
Created by potrace 1.14, written by Peter Selinger 2001-2017
</metadata>
<g transform="translate(0.000000,1592.000000) scale(0.100000,-0.100000)"
fill="#000000" stroke="none">
<path d="M4439 12626 c-2 -2 -22 -6 -44 -9 -22 -2 -74 -13 -115 -23 -41 -10
-78 -17 -82 -16 -5 1 -8 -3 -8 -10 0 -6 -3 -9 -6 -5 -3 3 -33 -7 -67 -22 -34
-15 -77 -34 -94 -42 -18 -7 -33 -17 -33 -21 0 -5 -5 -8 -11 -8 -11 0 -121 -75
-168 -115 -123 -104 -237 -255 -306 -405 -17 -36 -34 -68 -40 -72 -6 -5 -6 -8
0 -8 5 0 4 -5 -3 -12 -7 -7 -12 -20 -12 -29 0 -10 -4 -19 -8 -21 -11 -4 -52
-85 -52 -102 0 -8 -3 -16 -7 -18 -5 -1 -26 -41 -48 -88 -22 -47 -46 -93 -54
-102 -8 -10 -11 -18 -8 -18 3 0 -25 -62 -62 -137 -38 -76 -76 -156 -87 -178
-10 -22 -23 -43 -28 -47 -6 -4 -8 -8 -4 -8 3 0 -9 -32 -28 -70 -19 -39 -34
-74 -34 -78 0 -5 -6 -14 -12 -20 -7 -7 -13 -16 -14 -20 0 -12 -225 -474 -234
-482 -3 -3 -7 -14 -8 -25 -2 -11 -10 -27 -18 -36 -8 -8 -14 -19 -14 -24 0 -7
-52 -117 -171 -359 -27 -55 -49 -105 -49 -112 0 -7 -4 -14 -8 -16 -6 -2 -70
-125 -77 -148 -1 -5 -61 -128 -210 -435 -152 -312 -179 -370 -177 -377 1 -5
-3 -8 -8 -8 -6 0 -10 -4 -10 -9 0 -5 -41 -94 -92 -198 -50 -103 -92 -190 -93
-193 0 -3 -22 -47 -48 -98 -26 -51 -47 -99 -47 -107 0 -7 -5 -15 -11 -17 -5
-2 -11 -10 -13 -18 -1 -8 -42 -96 -91 -195 -88 -182 -159 -329 -299 -620 -43
-88 -85 -176 -94 -195 -9 -19 -20 -36 -24 -38 -5 -2 -8 -9 -8 -15 0 -7 -27
-67 -60 -135 -33 -67 -60 -127 -60 -132 0 -6 -4 -10 -10 -10 -5 0 -9 -3 -8 -7
1 -5 -30 -74 -69 -154 -39 -80 -74 -155 -77 -167 -4 -12 -12 -22 -17 -22 -5 0
-9 -6 -9 -13 0 -14 -13 -43 -138 -297 -42 -85 -77 -157 -77 -160 -1 -3 -40
-84 -87 -180 -154 -314 -228 -470 -228 -480 0 -6 -5 -10 -10 -10 -6 0 -9 -3
-8 -7 1 -5 -28 -69 -64 -143 -155 -319 -196 -408 -212 -460 -10 -30 -20 -62
-23 -70 -10 -26 -20 -71 -33 -160 -12 -75 -2 -352 13 -377 4 -5 8 -24 9 -42 1
-17 5 -31 8 -31 4 0 7 -6 8 -12 1 -15 10 -52 12 -55 2 -2 4 -7 5 -13 1 -5 4
-12 5 -15 1 -3 3 -8 4 -12 1 -5 11 -29 23 -55 12 -25 24 -56 28 -67 3 -12 11
-21 16 -21 5 0 9 -6 9 -13 0 -13 75 -127 115 -176 27 -32 138 -141 167 -165
41 -32 156 -106 166 -106 6 0 12 -4 14 -8 3 -8 143 -72 170 -77 9 -2 26 -8 37
-14 11 -6 24 -11 28 -10 4 1 10 0 13 -1 14 -5 43 -11 125 -24 87 -14 298 -15
355 -2 14 4 40 9 59 12 49 8 153 41 209 66 26 12 49 22 53 22 11 2 165 94 187
112 12 11 36 30 53 44 55 44 126 117 175 182 27 35 52 65 56 66 5 2 6 7 3 12
-3 5 2 15 10 23 8 9 19 26 25 39 5 13 14 30 20 38 19 29 170 348 170 359 0 6
5 11 10 11 6 0 10 5 10 12 0 11 80 178 90 188 3 3 6 10 7 16 1 5 52 113 113
240 154 314 204 418 205 424 0 3 7 16 15 30 8 14 15 27 15 30 1 3 31 66 67
140 86 178 209 431 293 605 37 77 101 208 141 291 41 83 74 156 74 163 0 6 5
11 10 11 6 0 10 5 10 11 0 6 16 42 35 80 19 38 31 69 27 69 -4 0 -1 4 6 9 7 4
14 15 16 23 1 8 9 27 19 41 9 15 17 33 17 42 0 8 5 15 10 15 6 0 10 4 10 10 0
5 29 70 65 144 36 74 65 139 65 145 0 6 5 11 10 11 6 0 10 5 10 11 0 6 48 108
106 227 58 119 106 222 107 227 1 6 4 12 7 15 9 9 93 185 89 186 -2 1 4 10 13
20 9 11 17 22 17 26 1 5 13 34 28 65 15 32 26 61 25 66 -1 4 3 7 8 7 6 0 10 4
10 10 0 5 39 89 87 187 48 98 88 180 88 183 1 3 42 88 91 190 50 102 108 222
129 267 31 63 42 79 52 71 7 -6 13 -14 13 -19 0 -4 40 -89 89 -189 49 -99 87
-180 84 -180 -3 0 0 -8 8 -17 8 -10 30 -52 49 -93 19 -41 40 -78 45 -82 6 -4
7 -8 3 -8 -3 0 17 -48 46 -107 111 -224 176 -363 176 -373 0 -5 5 -10 11 -10
5 0 7 -4 4 -10 -3 -5 -1 -10 4 -10 6 0 11 -5 11 -10 0 -12 90 -203 99 -210 3
-3 7 -10 8 -16 1 -7 42 -95 91 -195 49 -101 122 -250 161 -331 181 -376 220
-457 323 -668 61 -124 111 -230 112 -237 1 -7 5 -16 9 -19 4 -4 21 -37 38 -73
17 -36 55 -116 85 -177 30 -61 54 -116 54 -122 0 -7 5 -12 10 -12 6 0 10 -4
10 -10 0 -5 36 -85 80 -177 80 -165 86 -178 108 -218 6 -11 36 -74 68 -140 31
-66 85 -180 121 -252 35 -73 63 -134 61 -137 -2 -2 5 -12 14 -22 9 -11 17 -22
17 -27 1 -4 19 -43 41 -87 22 -44 37 -80 33 -80 -5 0 -3 -4 2 -8 8 -6 97 -177
100 -192 0 -4 29 -65 134 -280 15 -30 33 -66 41 -80 8 -14 15 -27 15 -30 1 -7
75 -121 88 -136 7 -7 23 -27 37 -45 40 -53 126 -134 193 -183 34 -25 67 -51
74 -56 7 -6 25 -16 40 -22 15 -7 30 -16 33 -19 6 -7 149 -70 167 -73 7 -1 16
-5 19 -9 4 -4 18 -7 31 -7 13 0 23 -5 23 -11 0 -5 4 -8 9 -5 5 4 36 -1 68 -10
81 -22 317 -26 420 -8 102 19 222 54 253 73 13 9 27 15 30 15 9 -2 53 19 83
39 15 10 27 15 27 11 0 -4 11 3 25 16 14 13 25 19 25 14 0 -5 4 -4 8 1 4 6 23
22 42 35 45 32 71 54 134 115 60 58 156 178 156 194 0 6 4 11 8 11 4 0 32 48
61 107 29 60 57 115 62 123 5 8 12 22 16 30 3 8 52 110 108 225 56 116 102
213 103 218 1 4 17 38 36 75 59 113 256 523 256 533 0 5 5 9 12 9 6 0 9 2 6 5
-3 3 20 56 50 118 31 62 56 114 57 117 14 42 29 70 36 70 5 0 8 3 7 8 -1 4 7
25 17 47 10 22 17 43 17 48 -1 4 2 7 8 7 5 0 10 5 10 10 0 6 27 64 59 130 33
67 60 123 61 125 2 13 36 81 43 86 5 3 10 12 11 20 2 8 34 77 71 154 38 77 69
142 70 145 1 3 34 73 75 155 40 83 73 152 73 155 -1 3 8 17 19 33 11 15 16 27
13 27 -3 0 3 13 15 30 12 17 19 30 16 30 -3 0 14 37 37 83 23 45 40 85 39 90
-1 4 2 7 8 7 5 0 10 9 10 20 0 11 5 20 10 20 6 0 10 5 10 11 0 7 25 62 55 123
29 62 59 123 64 137 6 13 15 31 20 39 6 8 31 60 57 115 26 55 73 153 105 218
32 64 55 117 52 117 -3 0 0 8 8 18 8 9 23 35 33 57 10 22 22 47 27 55 5 8 13
25 19 37 5 12 41 89 81 170 175 361 199 413 199 423 0 5 5 10 10 10 6 0 9 3 8
8 -1 4 41 94 92 200 77 159 96 190 101 170 4 -12 31 -72 61 -133 109 -218 138
-280 136 -285 -2 -3 7 -19 20 -37 12 -17 22 -34 22 -37 0 -12 75 -161 83 -164
4 -2 4 -8 1 -14 -4 -6 -3 -13 2 -17 8 -5 58 -98 60 -111 0 -3 31 -68 68 -145
38 -77 67 -142 66 -144 -1 -2 2 -7 7 -10 5 -3 17 -26 28 -51 10 -25 26 -53 34
-64 9 -10 15 -21 14 -25 -2 -3 17 -46 41 -96 111 -229 209 -430 264 -545 67
-140 163 -338 323 -668 60 -123 109 -228 109 -233 0 -5 5 -9 10 -9 6 0 9 -3 8
-7 -2 -9 7 -29 152 -328 62 -126 127 -264 146 -305 19 -41 39 -82 44 -90 9
-14 31 -58 35 -70 1 -3 20 -44 43 -92 23 -49 42 -91 41 -94 0 -4 3 -10 8 -13
5 -3 17 -24 27 -46 10 -22 40 -84 67 -137 26 -54 45 -98 41 -98 -4 0 -2 -4 3
-8 6 -4 22 -32 37 -62 130 -268 198 -412 198 -420 0 -6 5 -10 10 -10 6 0 10
-6 10 -13 0 -7 36 -86 80 -176 77 -155 138 -260 191 -325 34 -41 148 -156 155
-156 4 0 21 -12 39 -28 18 -15 43 -35 56 -45 29 -22 240 -127 266 -132 10 -2
18 -4 18 -5 0 -2 38 -11 53 -12 6 -1 12 -5 12 -10 0 -5 4 -7 9 -4 5 4 21 2 34
-3 90 -35 382 -35 512 -1 22 6 51 13 65 16 87 18 289 115 348 167 12 11 22 18
22 15 0 -8 87 70 151 136 32 32 75 84 96 115 21 31 40 58 43 61 11 10 40 60
35 60 -3 0 5 17 18 37 13 21 34 67 47 103 24 64 26 71 32 100 2 8 6 20 9 25 6
10 11 33 26 125 14 79 7 319 -10 395 -21 94 -44 176 -56 200 -6 11 -34 72 -64
135 -30 63 -84 177 -121 252 -37 76 -67 141 -67 145 0 5 -7 15 -15 24 -8 9
-12 18 -9 21 3 3 -1 11 -10 18 -8 7 -15 19 -15 26 0 8 -16 43 -35 80 -19 36
-35 72 -35 80 0 8 -4 14 -10 14 -5 0 -10 4 -10 9 0 6 -44 101 -99 213 -135
279 -221 457 -303 628 -38 80 -73 152 -78 160 -6 8 -15 26 -21 40 -6 14 -30
66 -55 117 -24 50 -44 96 -44 102 0 6 -4 11 -10 11 -5 0 -10 4 -10 10 0 5 -41
93 -90 196 -50 102 -90 189 -90 193 0 4 -6 13 -12 20 -7 6 -13 15 -13 19 0 7
-46 106 -68 147 -12 22 -41 81 -124 255 -31 63 -100 206 -154 318 -54 111 -98
203 -98 205 0 1 -24 52 -55 114 -31 61 -56 116 -56 122 0 6 -5 11 -10 11 -6 0
-9 3 -8 8 1 4 -26 63 -59 132 -119 246 -207 428 -301 620 -52 107 -114 236
-137 285 -39 83 -103 215 -303 624 -41 86 -76 158 -77 161 0 3 -32 68 -69 145
-153 312 -236 487 -236 496 0 5 -4 9 -10 9 -5 0 -10 8 -10 19 0 10 -7 24 -15
31 -9 7 -13 15 -11 18 3 2 -13 39 -34 81 -86 170 -139 281 -133 281 3 0 0 8
-8 18 -15 17 -24 35 -90 177 -18 39 -36 72 -41 73 -4 2 -8 9 -8 15 0 6 -16 45
-36 86 -20 42 -48 101 -62 131 -26 55 -99 181 -111 190 -3 3 -18 21 -33 40
-71 94 -182 195 -291 262 -68 44 -183 99 -207 99 -3 1 -9 4 -15 9 -15 12 -106
36 -230 59 -53 10 -299 8 -350 -3 -16 -4 -57 -14 -90 -22 -33 -9 -67 -17 -76
-19 -33 -7 -174 -68 -191 -83 -10 -8 -18 -12 -18 -8 0 3 -22 -10 -50 -29 -27
-19 -52 -35 -55 -35 -4 0 -20 -13 -38 -30 -18 -16 -35 -30 -38 -30 -12 0 -122
-115 -169 -175 -69 -89 -100 -143 -185 -320 -118 -244 -264 -544 -291 -598
-13 -27 -24 -55 -24 -63 0 -8 -4 -14 -8 -14 -5 0 -19 -26 -32 -57 -13 -32 -26
-60 -29 -63 -4 -3 -17 -30 -31 -60 -14 -30 -28 -56 -32 -58 -5 -2 -8 -10 -8
-17 0 -7 -19 -50 -41 -96 -65 -131 -204 -420 -220 -456 -8 -18 -17 -33 -21
-33 -5 0 -8 -5 -8 -11 0 -12 -21 -56 -158 -339 -36 -74 -65 -138 -64 -142 1
-5 -3 -8 -8 -8 -6 0 -10 -4 -10 -10 0 -10 -83 -185 -216 -456 -41 -83 -74
-155 -74 -161 0 -6 -7 -16 -15 -23 -8 -6 -13 -15 -12 -18 1 -4 -24 -59 -55
-122 -31 -63 -98 -203 -151 -310 -52 -107 -123 -253 -158 -325 -34 -71 -63
-132 -64 -135 0 -3 -40 -85 -88 -183 -48 -98 -87 -182 -87 -187 0 -6 -4 -10
-10 -10 -5 0 -9 -3 -8 -7 1 -5 -13 -39 -32 -78 -18 -38 -33 -73 -32 -77 1 -5
-3 -8 -8 -8 -6 0 -10 -5 -10 -10 0 -10 -142 -310 -161 -340 -5 -8 -14 -26 -20
-40 -6 -14 -27 -59 -47 -100 -20 -41 -36 -78 -34 -82 1 -5 -3 -8 -8 -8 -6 0
-10 -6 -10 -13 0 -7 -5 -18 -12 -25 -8 -8 -18 3 -39 46 -15 31 -68 140 -117
242 -49 102 -110 228 -135 280 -26 53 -47 101 -47 108 0 7 -4 12 -9 12 -5 0
-13 10 -16 23 -4 12 -29 65 -56 118 -26 53 -45 100 -42 103 4 3 1 6 -5 6 -7 0
-12 9 -12 20 0 11 -4 20 -10 20 -5 0 -10 4 -10 9 0 5 -46 103 -102 218 -56
114 -103 214 -104 221 -1 8 -9 21 -18 30 -8 10 -15 21 -14 25 0 7 -30 70 -128
270 -24 48 -40 87 -36 87 4 0 3 4 -3 8 -5 4 -24 36 -41 72 -18 36 -58 119 -90
185 -32 66 -59 122 -59 125 -1 3 -44 93 -97 200 -53 107 -99 205 -102 218 -4
12 -12 22 -17 22 -5 0 -9 6 -9 13 0 8 -29 73 -65 145 -35 72 -87 178 -114 234
-27 57 -94 197 -150 312 -56 115 -109 225 -118 245 -9 20 -21 39 -26 42 -5 3
-8 9 -7 13 1 4 -9 30 -23 59 -108 224 -228 471 -275 567 -31 63 -55 118 -54
123 1 4 -2 7 -8 7 -6 0 -9 3 -8 8 2 7 -64 146 -177 374 -130 260 -272 418
-490 545 -76 44 -230 106 -293 118 -9 2 -17 4 -17 5 0 1 -11 3 -25 6 -14 2
-38 7 -55 10 -37 7 -300 16 -306 10z"/>
</g>
</svg>
